<svg data-name="Layer 1" xmlns="http://www.w3.org/2000/svg" viewBox="0 0 243 162"><path d="M124 162a13 13 0 0 1 3-2 57 57 0 0 0 8-3v-2c2 0 2 2-1 3a66 66 0 0 1-10 4zm80-1a14 14 0 0 1-3-2 10 10 0 0 0-3-1h-10a31 31 0 0 1-6 0l-8-4q-3-4-6-3a42 42 0 0 0-7 3l-6 3h-5l-8-1-3-2 5-6 4-4 7-6a8 8 0 0 0 1-1l-8-2-6-1a3 3 0 0 0-3 1 41 41 0 0 1-5 2l-9 5-9 4-8 4-6 2a46 46 0 0 1 6-3 1587 1587 0 0 0 31-15 14 14 0 0 0-3-1 36 36 0 0 1-5-3l-3-1-16 8-18 9-3 1h1a5 5 0 0 1 1-1 552 552 0 0 0 60-36 38 38 0 0 0-5-3l-5-2a231 231 0 0 1-21 9l-7 3-12 6-9 3a231 231 0 0 1-5 2l7-3a1291 1291 0 0 0 36-16 23 23 0 0 0 4-1 15 15 0 0 1 3-1 2 2 0 0 0 2-1 2 2 0 0 1 1-1c1 0 1-1-1-2l-19-3a79 79 0 0 1-10-2 24 24 0 0 0-4 0l-1-1-2-2-1-1 1-2c1-2 3-4 8-7 4-2 15-11 17-14a7 7 0 0 0 2-3c0-1-2-5-6-8a27 27 0 0 1-3-4c-2-3-1-6 2-13l5-13-5-10c-3-3-3-4-8-7l-3-3-2-2c-2-1-3 0-5 2l-3 2 4-4V7c0-4 0-4-1-3a33 33 0 0 1-3 5c-2 3-2 4 1 8 5 6 6 8 3 9l-7 4a4 4 0 0 0 0 3l-1 4-2 1a17 17 0 0 0-3 2 12 12 0 0 0-4 4l-1 2 1 2a89 89 0 0 0 8 12c5 6 6 10 4 12l-10 1c-12 0-17 1-18 3l2 4c2 4 2 5 1 7l-7 2-6 3c-1 1-2 2-1 4l1 2-1 2-2 1c0 2 7 7 7 6l9-3-1 1-3 1-2 1a5 5 0 0 0-2 1l2 2a32 32 0 0 0 3 2c2 1 2 2 1 4s-4 3-15 3c-9 1-14 1-16 3l-11 6-10 6a1 1 0 0 1-1 1c-1 0 1-2 10-7l11-6c-1-1-13 3-16 6l-3 1 3-3a43 43 0 0 1 14-6l7-1a102 102 0 0 1 11-1l11-1c4-1 6-3 4-4-2 0-9-5-12-8l-3-4 2-2c2-1 2-1 1-3a15 15 0 0 1-1-2c-1-1 0-2 1-3s6-3 10-3c2-1 4-2 4-4a5 5 0 0 0-1-2c-2-2-3-4-2-6 0-1 0-2 2-3l16-1c8 0 10-1 11-2s-2-5-6-10a81 81 0 0 1-5-7 13 13 0 0 0-2-3c-2-3-2-4 0-7a15 15 0 0 1 6-5l3-2v-3l2-4a15 15 0 0 1 4-4l3-1-5-7a29 29 0 0 1-2-3c-1-1-1-1-4 3l-4 6-7 10-11 14a18 18 0 0 0-2 3 10 10 0 0 1-2 2l-3 4-3 4-8 10-15 18c-14 13-31 24-40 26-3 1-2 0 1-1 4-1 15-7 22-13a177 177 0 0 0 17-15l10-12-3-1-3-1c-2-2-1-4 4-7l4-3a10 10 0 0 0-2-3l-1-4v-1a60 60 0 0 0-7 3 26 26 0 0 1-5 1 10 10 0 0 1 3-1c3-2 8-3 10-3a2 2 0 0 0 2-1l-4-5c-4-2-5-4-4-6 2-2 1-3-1-5s-2-2-4-1h-3a12 12 0 0 1 3-1c1 0 2 0 1-1a5 5 0 0 1 0-1l-3-1a6 6 0 0 1-2 1l4-2 1-1h-3l-3 1 2-2c2 0 2 0 1-1l-3 3c-2 2-2 5-1 7 2 2 2 2 5 1a9 9 0 0 1 3-1l-1 1a22 22 0 0 0-3 1v2h3a11 11 0 0 1 3 0h-2a17 17 0 0 0-3 2 15 15 0 0 1-3 1c-2 1-3 1-2 2v4l-4 1a14 14 0 0 0-4 2l-2 2 1 2a22 22 0 0 1 2 5v4l-3 2c-3 3-3 4-2 6s1 3-1 5c-2 0-2 1-2 2 0 2 1 4 4 5l4 3c0 1 0 2 2 0l7-2-5 2-4 3a2 2 0 0 1-2 1h-5c-5-2-7-2-11 0l-8 5H1c-1-1 1-2 5-4l5-3H8a9 9 0 0 0-5 0H1c0-2 14-2 20 0h5c1-1 0-2-3-4s-5-4-5-6a3 3 0 0 1 3-4v-3a4 4 0 0 1 1-4 8 8 0 0 1 2-3 5 5 0 0 0 2-3v-5c-2-4-2-5-1-6l7-4a2 2 0 0 0 1 0 1 1 0 0 1 1 0l-1-3c0-2 0-2 2-3l2-1a7 7 0 0 0-2-3 6 6 0 0 1-2-3v-2l-3 3a127 127 0 0 1-13 16l-9 8a11 11 0 0 0-2 1l-6 2 8-5 17-17 5-6 3-6c2-3 3-4 5-4l3-1c2 0 6 3 8 8l3 4a10 10 0 0 1 3 2 4 4 0 0 0 2 1c2 0 4 1 5 3 3 4 5 6 7 6s2 1 7-5a191 191 0 0 0 10-14l9-12 6-9a23 23 0 0 1 3-4 3 3 0 0 0 1-2l6-3a6 6 0 0 1 3 1 7 7 0 0 0 2 2l5 4a20 20 0 0 0 4 5 16 16 0 0 1 3 3 18 18 0 0 0 3 4 11 11 0 0 1 2 3 5 5 0 0 0 1 1 5 5 0 0 1 1 3l3 4c3 3 3 5 5 10a11 11 0 0 0 2 3 5 5 0 0 1 1 1 60 60 0 0 0 4 6 60 60 0 0 1 5 6l5 2c2 0 5 2 5 5 1 4 1 4 6 1 7-5 11-8 15-14a9 9 0 0 1 3-3l2-1 1 2a7 7 0 0 0 2 1 29 29 0 0 1 4 4l12 10a7 7 0 0 0 4 1 12 12 0 0 1 3 0l5 4a46 46 0 0 0 4 5l11 5a12 12 0 0 1 4 2l2 2-2 1a6 6 0 0 0-1 3l-1 10-1 9 5 5c0 1-1 1-3-1s-3-2-7 0l-4 1c-3-1-12 2-15 4l-2 1 10-5 5-1a7 7 0 0 0-1-2 10 10 0 0 1-1-3l-1-2h-5c-6 0-7-1-8-3v-3l2-3 2-1-1-2a33 33 0 0 0-5-4l-3-3a5 5 0 0 1 1-2 4 4 0 0 0 1-1v-1c2 0 4-3 4-5l-4-4c-5-4-6-4-6-6 1-3-2-7-3-6l-7 3h-1l6-4c2 0 1-1-2-4l-4-4-3 3a10 10 0 0 0-2 3c0 1 3 2 4 1a11 11 0 0 1 2-2h2l-1 1a7 7 0 0 0-2 1v2l-2 4c-2 1-2 2-1 4l1 3a8 8 0 0 1-3 3 23 23 0 0 0-3 2l-2 2 1 2a32 32 0 0 1 1 7l1 5a11 11 0 0 1 4 5 10 10 0 0 0 3 3 13 13 0 0 1 3 3 9 9 0 0 0 1 2 1 1 0 0 1 1 1l6 2 6-2 4-2a10 10 0 0 1-3 2 10 10 0 0 0-3 2 2 2 0 0 0 1 2 18 18 0 0 1 2 4c2 3 6 8 7 7v1c-1 1 0 1 1 2v2a28 28 0 0 1-4-4l-3-3v1l-1 7-1 5v-7l-1 2a422 422 0 0 0-3 8l1-6 1-4v-1a2 2 0 0 1-2 0h-1l-1 8a406 406 0 0 0-1-8l-1-1 1-2-1-1-3 12a617 617 0 0 1 0-8h-1c-2 0-2 0-3 4a410 410 0 0 1-5 28 132 132 0 0 0 2-14 151 151 0 0 1 2-14c-2 2-2 1-1-5l1-7a269 269 0 0 0-3 8v-4l-1 2-1 1-1-10v-2a48 48 0 0 0-1 6 867 867 0 0 1-2-4l-2-1v3l-1 4a44 44 0 0 0-1 5 341 341 0 0 1-5 25 17 17 0 0 1 1-5 705 705 0 0 0 3-30c0-1 0-1 0 0a11 11 0 0 0-1 3 1227 1227 0 0 0-8 30 56 56 0 0 0 3-9l2-13c2-8 2-11 1-11a1018 1018 0 0 1-10 36l3-12c3-19 4-20 3-21a2 2 0 0 1 1-1 2 2 0 0 0 0-2l-1 1a9 9 0 0 1-2 1l-1 7-4 17a18 18 0 0 0-1 3 1 1 0 0 1 0 1 3 3 0 0 0-1 2l-1 5a11 11 0 0 0-1 3 9 9 0 0 0 3-1 19 19 0 0 1 6-1c2 0 3 0 9 5 3 2 5 2 11 2 7-1 9-1 12 1a25 25 0 0 0 4 2l1 1c0 1 0 0 0 0zm-47-6l2-2a9 9 0 0 1 0-3l2-8c1-6 1-6 2-5l1-4a2347 2347 0 0 1 4-20l-3 3-2 2a257 257 0 0 0-6 29 11 11 0 0 0 0 3l-2 3 1-8a64 64 0 0 0 3-17l1-6 2-12 2-12 1-6a50 50 0 0 0 1-7v-3a1 1 0 0 0-1 0h-1l-1-3-2 20-1 2 1-2c1-5 2-9 3-8s-1 8-4 16l-1 7-2 5a7 7 0 0 0-1 3l-1 6c-2 5-2 6 0 7s2 2 1 3c0 1-3 12-2 13s-1 3-2 3l1-8c2-5 1-5-3-2l-5 5v4c0 2 0 2 2 3h2a17 17 0 0 0 8-1zm-10-2c0-3 1-6 2-5l-1 1a14 14 0 0 0 0 4l-1 2v-2zm2 0l3-9v4l-1 5-1 2-1-2zm-5 0a16 16 0 0 1 0-3h-1c-2 2-2 4-1 4s2 1 2-1zm9-20a86 86 0 0 1 2-9l3-12a43 43 0 0 1 1-6 3 3 0 0 0-1-4c-1 0-2 1-3 5l1 3a2 2 0 0 1 0 3 12 12 0 0 0-1 3l-1 6-2 6c-1 5-1 5-2 4l1-4 3-13-2 1-2 2a13 13 0 0 1-1 3l-2 7-1 4-1-1a99 99 0 0 1 3-12 6 6 0 0 0 1-2l-2 1c-3 1-3 2-3 4l-1 6-1 5h1a59 59 0 0 0 8 1l2-1zm-11-7a51 51 0 0 0 1-6l-8 4-2 4a12 12 0 0 0 1 2l1-3a4 4 0 0 1 1-1v2l1 4c4 1 4 1 5-6zm-4 4l2-7v2a21 21 0 0 0-1 4c0 2 0 2-1 1zm-6-2a1 1 0 0 0-1 0l1 1v-1zm62-10h-1a17 17 0 0 0 0 3l-1 1 1-1a8 8 0 0 0 1-3zm-32 2h-1l1 1a1 1 0 0 0 0-1zm34-1c0-2-1-2-1 0v1l1-1zm11 0h-1v1a1 1 0 0 0 1-1zm-43-7l2-7v5c-2 6-2 6 0 3a13 13 0 0 0 2-6v-6c1-7 2-12 1-14 0-4-2-1-3 5v5l-1 6a31 31 0 0 1-1 6l-2 10 2-7zm26 0v-6a4 4 0 0 0 0-3l-2-1a8 8 0 0 0 0 3 14 14 0 0 1 0 3 29 29 0 0 0 0 5c0 5 0 5 1 4l1-5zm18 2l-3-5 1 5a1 1 0 0 1 0 2h1c1-2 1-1 1 0l1 1a7 7 0 0 0-1-3zm-6-1l-1-6-1 5c0 3 1 3 2 0zm-3-2l-1-4v7a25 25 0 0 0 1-3zm-3-1v-4l-1 4v2a13 13 0 0 1 1-2zm-3 0v-1l-1 2c0 2 0 2 0 0l1-1zm11 0v-3l-1 5 1-2zm-27-1h-1a5 5 0 0 0 0 2 5 5 0 0 0 0-2zm9-2v-4a2 2 0 0 0-1 1l-1 1-1 1a2 2 0 0 0 0 2l1 1v2a17 17 0 0 0 2-4zm-5 2h-1a3 3 0 0 0 0 1 3 3 0 0 0 1-1zm-10-2c1-1 1-1 0 0a4 4 0 0 0-1 2l1-2zm-16-3a48 48 0 0 0 0-5l-3 2a18 18 0 0 0 0 3l-1 2v-2-5-1c-2 0-2 0-1-3 1-2 1-2 0 0l-2 7v1a1 1 0 0 1-1-1l2-11c0-1-1-2-2 0l-1 1-1 2v9l9 5a20 20 0 0 0 1-4zm79 3c2-1 2-1 2-3l1-7 2-8-1-4v-1c1-3 0-4-3-4l-2 5 1 2c1 1 2 0 2-3 0-5 1-4 1 0l1 3v1a1 1 0 0 1-1 1l-1 3a32 32 0 0 0 0 5 2 2 0 0 1 0 1 9 9 0 0 0-1 4l-1 2-1-6v-1l-1 5c-1 6-2 6-2 0v-4-2c1-1 0 0 0 0-2 0-2 1-2 4l-1 3 2 5c1 1 2 0 5-1zm-64-3l2-3 1-6v-8l-1-2-2 12a258 258 0 0 1 0 7zm8 1l1-6v-9l-1-1-1 1v9l-1 6v2l1-1a3 3 0 0 1 1-2zm-3 0c0 1 0 0 0 0l1-8v-8a3 3 0 0 0 0-2c-1-1-1-1-1 2v3l-1 5-1 7c0 2 0 2 1 1h1zm6-2v-8 1l-1 6v3l1-2zm12 1c-1-1-2-1-1 1h1v-1zm-50-5l1-3v-6l-1 1a12 12 0 0 0-1 5l-1 3v-1-5l1-5c0-1-1-2-2 0l-2 10v3l2 1h3v-3zm41-1c0-2 0-2-1-1v5a10 10 0 0 0 1-4zm-24-10v-3c0-2 0-3 1-2s0 1 1-1a4 4 0 0 0-1-2v-5c0-5 0-5-1-4a152 152 0 0 0-2 28 3 3 0 0 0-1 1 13 13 0 0 0 2 1h1v-6-7zm-22 3v-5a3 3 0 0 0 0-2h-1a4 4 0 0 0-1 3l-3 11 2-15a315 315 0 0 0 5-29 30 30 0 0 0 1-5v-2l-1 2a14 14 0 0 1-1 4 33 33 0 0 0-1 6l-4 19 2-13a167 167 0 0 0 3-27 3 3 0 0 0 0-1c-1-1-1 0-2 6a194 194 0 0 1-3 21 22 22 0 0 0 0 4l-4 30 3 2h3l2-9zm49 8a1 1 0 0 0-1-1v2a1 1 0 0 0 1-1zm34 0a3 3 0 0 0 0-2c-1-1-1 0-1 1l-1 2-1-2v-1l-1 1h-1c0-2-1-2-1 0-1 2 0 3 3 3s3 0 3-2zm4 1a2 2 0 0 1 1-2l1-1-2 1a5 5 0 0 1-2 1l-1 1 2 1 1-1zm-96-3a43 43 0 0 1 1-6l1-13v-3a8 8 0 0 0 1-3l-3 2c-3 3-4 5-4 8a175 175 0 0 1-3 14l2-14a10 10 0 0 0 0-3l-3 3-2 6-1 3-1 5v2h4l6 1c2 0 2 0 2-2zm-4 0a203 203 0 0 1 5-20v1a251 251 0 0 0-5 19zm-6-2l2-13 1 3-1 5v4c-1 3-2 4-2 1zm95 3a12 12 0 0 1 0-2v-1l-1 1-1 2h2zm-98-1v-2l1-4 1-6 1-2a13 13 0 0 0-3 2l-3 2-1 4a431 431 0 0 1-1-3l-1 3a11 11 0 0 1-1 4c-1 1-2-1-2-2l-1-1c-1 2 1 3 6 5h4zm-3-4l2-7v4l-1 7-1-4zm43 2v-6a126 126 0 0 0 1-18l-1 4-2 10v9c1 0 2 0 1 2v1a5 5 0 0 0 1-2zm68 1l-1-1v2a1 1 0 0 0 1-1zm3-1h-1a1 1 0 0 0-1 1h1l1-1zm7 0a17 17 0 0 0 1-3l-1-2-2 2a8 8 0 0 0 0 3h2zm-3-6l1-7-1-3-2 8-1 5c-1 1 1 1 1 1l1 1c0 1 0 1 0 0l1-5zm-6-4a78 78 0 0 0 1-9 1 1 0 0 0-1-1l-1 2a31 31 0 0 1-1 4v10a2 2 0 0 1 0 2 1 1 0 0 0 0 1l2-9zm-43 8a1 1 0 0 0-1 0l1 1v-1zm2-1v1s0 1 0 0a1 1 0 0 0 0-1zm35 1a2 2 0 0 0-1-1 1 1 0 0 1 0-2h-1v-3c1 0 1 0 0 0-2 2-1 7 1 7l1-1zm8-4zm-118 0l-1 2h1a4 4 0 0 0 0-2zm43 0l2-8a340 340 0 0 1 0-9v-4l-1-5v3a15 15 0 0 1-1 4 6 6 0 0 0 0 1l-2 16v2c0 2 1 2 2 0zm-6 0v-1a1 1 0 0 0 0 1c0 1 0 0 0 0zm69-3a10 10 0 0 1 0-3v-1l-2 3a1 1 0 0 1 0 1l1 2a12 12 0 0 0 1 1 15 15 0 0 0 0-2zm-70-2l-1 2-1 3 1-2a5 5 0 0 0 1-3zm36 3c1-2 0-4-1-8l-1-3 2-2a19 19 0 0 1 4-3c3-2 3-3 1-5s-1-4 2-5l2-2-3-1c-2-1-3-2-2-4v-1l-1 2c-2 3-9 8-16 12l-1 3 4 6 5 6v1a1 1 0 0 1 1 1l1 3c2 2 3 2 3 0zm32-8a12 12 0 0 0 1-3v-2l-1 2a11 11 0 0 1-1 3l-1 7 1-3a20 20 0 0 1 1-3zm9 6h-1v1a1 1 0 0 0 1-1zm-73-2c1-2 0-2-1 0v2a3 3 0 0 0 1-2zm61 0l-1-2a1 1 0 0 0 0 3c1 1 1 1 1-1zm12 0c0-2 0-2-1-1a2 2 0 0 0 0 1h1zm-80-2h-1a3 3 0 0 0-1 1h1a3 3 0 0 0 1-1zm76 0c2-1 1-2 0-1a5 5 0 0 0-1 2l1-1zm-79-2v-1l-2 2v2l1-2a5 5 0 0 0 1-1zm83 1c0-1 0-1 0 0v0zm-72-1a35 35 0 0 0 0-3l1-5V61l-1 4c0 1 0 2-1 1v-1l-1 13v2c-1 1-1 1 0 0l2-1zm-8-1l2-9a554 554 0 0 1-2 9zm3 0l2-6 1-9v-4 2l-1 2v-4l-1-3-2 23a3 3 0 0 0 1-1zm23-1v1c0 1 0 1 0 0a1 1 0 0 0 0-1zm55-1l-1-5c-1-1 0 0-1 1 0 3 0 5 1 4a5 5 0 0 1 1 0zm-83-4l3-16a51 51 0 0 0 0-6v-6s0-1 0 0a61 61 0 0 0-1 6 36 36 0 0 1-1 6 49 49 0 0 0-2 8l-1 8 1 3a12 12 0 0 0 1-3zm80-1l-1-3v5a2 2 0 0 0-1 1h1a6 6 0 0 0 1-3zm-3 2h-1a1 1 0 0 0 0 1c0 1 0 1 0 0a3 3 0 0 0 1-1zM53 70v-3-3l-1 2a8 8 0 0 1 0 3v1a1 1 0 0 1 1 1c0 1 0 1 0 0a2 2 0 0 0 0-1zm159-2v0zm5 2a6 6 0 0 1 1-3c0-1 0-2-2-2h-1l1 5c0 1 0 2 1 1a3 3 0 0 0 0-1zm-2 1l-1-1a1 1 0 0 0 0 1h1zM50 69a6 6 0 0 1 1-3v-1l-1 4h-2c0-1 0-1 0 0l1 1c2 0 1 0 1-1zm106-3v0zm52 1h-1v1c0 1 0 0 0 0a1 1 0 0 0 1-1zm-45-2c0-2-1-2-1 0l1 2a3 3 0 0 0 0-2zM58 66l-1-1v2a1 1 0 0 0 1-1zm155 0l-1-1-1 1h1a1 1 0 0 0 1 0zM57 62a3 3 0 0 1 0-2v-1l-2 4v3l1-2a3 3 0 0 0 1-2zm77-4l1-9 1-10v-5a9 9 0 0 0 0 3 44 44 0 0 1-2 9v-4a53 53 0 0 0 0-6l1-1-1 1a146 146 0 0 0-2 28l1 1v-2l1-5zm72 6a1 1 0 0 0 0-1l-1 1 1 1a3 3 0 0 0 0-1zm-75-9a1103 1103 0 0 0-1-7 3 3 0 0 1-1 2l-1 4-1 4 2 2a13 13 0 0 0 1 1l1-6zm-70 2l-1 1c-1 2-1 2 0 0a6 6 0 0 0 1-1zm3 0v-3c1-4 0-3-1 0v5a4 4 0 0 0 1-2zm-9 0a2 2 0 0 0 0-1v-2h-2v3c1 1 2 2 2 0zm73-5a87 87 0 0 0 1-9 19 19 0 0 1 0-4c0-1 1-1 1 1v2-3-4l-3 9a42 42 0 0 1-1 7l-2 5 1 1 1 1 2-6zm-61 2c-1-1-1-1-2 1v2l1-2 1-1zm-5 0v-5l-1-2v2 6l1-1zm63-7v-1 1c-1 1-2 6-1 7l1-7zm-68 2a11 11 0 0 1 1-3l1 1c0 2 1 2 1 0l-2-4-1 2a42 42 0 0 1-1 5v2a9 9 0 0 0 1-3zm-1-3a14 14 0 0 1 1-3v-1l-2 3a11 11 0 0 0-1 4c1 1 1 0 2-3zm-2-2a16 16 0 0 0 0-3l-2 7 2-4zm86-3c0-3 0-2-1 2a14 14 0 0 0 0 5l1-7zm-88 2v-2l-1 3c0 3 0 3 1-1zm-2 1a11 11 0 0 1 0-1h-1v2a1 1 0 0 0 1-1zm92-2l-1 1c0 1 0 1 0 0a3 3 0 0 0 1-1zm-93-1c0-1-1-1-1 1v1a4 4 0 0 0 1-2zm0-2v-1 1zm-3-6v-2l-1 3c1 1 1 1 1-1zm83-11a1 1 0 0 0-1-1v1h1zm-2-3a2 2 0 0 0-1-1v1h1zm-2-3h-1l1 1a1 1 0 0 0 0-1zm-3-4c-1-1-1 0-1 2l1 1v-1a2 2 0 0 0 0-2zm-4-1a3 3 0 0 0-1-1v2c2 1 3 1 1-1zm0-3h-1l1 1a1 1 0 0 0 0-1zm-2-2c-1-1-1 0-1 1h1V6zm-4 0h-2v1c1 1 2 0 2-1zm2 0V4l-1 1c0 2 0 2 1 1zm-2-2l-1-1a1 1 0 0 0 0 1v1a1 1 0 0 0 1-1zm-3 155l9-4 21-10a28 28 0 0 0 5-4h2c-1 1-3 3-14 8a267 267 0 0 1-23 10zm96-7a292 292 0 0 0 6-26 46 46 0 0 0 0-4c1-2 2-2 2-1a14 14 0 0 1-1 3l-4 22a68 68 0 0 1-2 7l-1-1zm-43-2l3-10-1 6c0 3-1 5-2 4zm50-2c3-11 4-22 3-22l-1 2c-1 1 0 1 0 0l2-3c2 1-1 22-3 24l-1-1zM44 138l18-9a96 96 0 0 0 12-7l-4 3a340 340 0 0 0-26 13zm-13-1l8-4 4-3a160 160 0 0 1-7 5 20 20 0 0 0-4 2h-1zm67-5a606 606 0 0 1 38-18 8 8 0 0 1 2-1l-11 5-36 17a34 34 0 0 1-5 3l11-6zm125 2l6-3-2 1a8 8 0 0 0-3 2h-1c-1 0-1 0 0 0zm8-4a3 3 0 0 1 2-1l-1 1h-1zm-159-2l19-9 13-5a287 287 0 0 1 18-8 26 26 0 0 1-2 1 878 878 0 0 0-48 21zm148-3l11-6 7-3c1-1 1 0 1 1l-7 3a88 88 0 0 0-9 4l-3 1zm1-8a157 157 0 0 1-1 1 6 6 0 0 1-1 1l2-2zm-144 0l5-2 7-3a570 570 0 0 1 25-11 4 4 0 0 1 2 0l-3 1-28 12a50 50 0 0 0-6 3h-2zm-22-4l-14-2H27v-3c2-2 9-4 13-3h4l3-3a4 4 0 0 1 3-2 9 9 0 0 0 3-1 7 7 0 0 0 0-3v-3l4-1a2 2 0 0 0 1 1l1 2c0 6 0 9 2 11 3 4 2 6-1 7h-5zm6-1v-4l-2-2-4 2c-5 2-5 3-3 3a4 4 0 0 1 3 1l3 1a6 6 0 0 0 3-1zm-5-2l5-1-1 1h-4zm-7 0a2 2 0 0 1 1-1 31 31 0 0 0 5-1l4-3a5 5 0 0 0-1-2l-8 3-8 3 3-1 13-7-5 2-5 1 5-2 5-3v-2a13 13 0 0 0-1-3 4 4 0 0 0-2 1l-1 2h1l2 1a1 1 0 0 1-1 0 3 3 0 0 0-2 1 8 8 0 0 1-3 2 4 4 0 0 0-3 2 6 6 0 0 1-1 2 187 187 0 0 1-13 4c1-1 0-1-2-1l-4 1a1 1 0 0 0 0 1h19a6 6 0 0 0 2 0zm-10-3l1-1-7 1h2a37 37 0 0 0 4 0zm17-14h-2c-2 1-1 2 0 1l2-1zm86 18a13 13 0 0 1 3-1l-6 3 3-2zm-67 0a130 130 0 0 1 15-7 13 13 0 0 0-3 1l-6 3a52 52 0 0 0-5 3h-1zm135-1c-1-1 1-2 3-3l9-2-4 2-8 3zm31-4a5 5 0 0 1 0-3l1 1v3l-1-1zm-231 0c1-1 7-4 8-3s-2 1-5 2l-4 1h1zm229-4a57 57 0 0 1 1-6c1-4 2-2 1 2l-1 5v2l-1-3zm-111 1h1a4 4 0 0 0 2-1 1 1 0 0 1 1-1l-3 2-1 1zm-63 0l4-3a217 217 0 0 0 4 0 36 36 0 0 0-6 3h-2zm6 0a9 9 0 0 1 3-2l9-4 8-3 7-4 8-3a38 38 0 0 0 5-2l2-1-10 5a575 575 0 0 0-32 14zm25-2l6-2-6 3h-1zm-88 0l10-5-5 3a13 13 0 0 0-3 1l-2 1zm190-3a24 24 0 0 1 4-2 236 236 0 0 0-4 2zM66 97l4-3 9-4 6-2 10-4 14-5a431 431 0 0 0-28 11 27 27 0 0 0-4 2h-1l-9 4a1 1 0 0 1 0 1h-1zm127-2l10-6 4-1a33 33 0 0 1-6 3 73 73 0 0 0-6 3l-2 1zm-5-5a68 68 0 0 1 10-6 301 301 0 0 0-6 4 17 17 0 0 1-4 2zM79 88a9 9 0 0 1 3-1l-2 1a8 8 0 0 1-2 1l1-1zm3-1l6-3-3 2-3 1zm102-1l14-8a174 174 0 0 0 0 1 160 160 0 0 0-14 7zM26 85a90 90 0 0 1 19-8l-9 4a87 87 0 0 0-9 4 3 3 0 0 1-1 1v-1zm63-2a3 3 0 0 1 1 0c1 0 1 0 0 0a3 3 0 0 1-1 1v-1zm-6-2l7-3c2 0 1 1-3 2l-4 1zm-57-1l2-1c3-1 3-1 0 0l-2 1zm69-1a4 4 0 0 1 1-1l5-2a283 283 0 0 1-6 3zm91-1a42 42 0 0 1 11-6 27 27 0 0 1 5-2l-4 2a74 74 0 0 0-9 5c-3 2-5 3-3 1zM31 78l1-1c1-1 1 0 1 1h-1-1zm2-1l4-1-2 1h-2zm5-2a3 3 0 0 1 2 0h-2zm-9-2h0c0 1 0 1 0 0zm3-1l6-3a15 15 0 0 0 3-1 7 7 0 0 1 3 0l-2 1-6 2-4 1zm156 0l8-6c6-3 6-3 4-1a29 29 0 0 1-4 2 63 63 0 0 0-6 3l-2 2zM27 68a1 1 0 0 1 1 0h-1zm78 0l12-6 6-2c1 0 3 0 1 1a189 189 0 0 1-19 7zm-76-1h1a1 1 0 0 1-1 0zm4-2a111 111 0 0 1 12-4 126 126 0 0 0-12 5 7 7 0 0 1-2 0l2-1zm156 1l8-5c4-2 5-1 0 1a58 58 0 0 0-6 3l-2 1zm-78-6l10-5-8 4-2 1zm-9-4zm-7-2a52 52 0 0 1 8-5c1 0-1 2-5 3l-3 2zm94 0l2-2c1 0 1 1-1 1l-1 1zm-96-5a11 11 0 0 1 1-1v1h-1zm11 0a4 4 0 0 1 1-1l11-5-12 6zm-66-1a3 3 0 0 1 1-1l-1 1c-1 0-1 0 0 0zm58-1h1l-1 1v-1zm24 0l3-2-2 1c-2 0-2 1-1 1zm-78-1a10 10 0 0 1 3-1l-1 1h-2zm61-2l17-9a23 23 0 0 1 6-3l-4 3a378 378 0 0 1-19 9zm-11 2a11 11 0 0 1 2-1c1-1 1-1 0 0l-2 1zm4-2a4 4 0 0 1 1-1v1a3 3 0 0 1-2 0h1zm2-1a29 29 0 0 1 5-3 23 23 0 0 1-5 3zm19 0l3-2-2 1-1 1zm-13-3zm18 0a1 1 0 0 1 1-1v1a1 1 0 0 1-1 0zm2-2h2-2zm-16-6zm16-2a4 4 0 0 1 2-1l1-1a4 4 0 0 1-1 1l-2 1zm-15-3l11-7-5 4-6 3zm-2-9l8-4-3 2a32 32 0 0 0-4 2h-1zm-3-3l8-4-3 2a18 18 0 0 0-3 2h-2z" fill="#888d8e"/><path d="M201 159c-3-2-4-2-14-1-6 0-8 0-11-3a31 31 0 0 0-4-4c-2-1-5 0-8 1l-5 3-10 2-8-2c-1-1-1-2 1-5l8-7a28 28 0 0 0 5-5l1-1-1-1-1-1-10-1h-5c-1 0-1 1 0 0s-1-1-3-2l-8-4 17-10 10-6c0-2-8-7-15-9-3-1-10-3-18-3-10-1-16-3-18-6l1-3a38 38 0 0 1 7-5l19-15c2-2 1-5-5-11l-4-6 3-10 1-4 2-3 2-6v-4l-1-1c-3-5-8-12-10-12a13 13 0 0 1-2-1c-2-1-3-2-2-3 0-1 0-2-3-2l-4 1-4 2a7 7 0 0 1 2-1c2-2 2-2 2-5l-1-2a1 1 0 0 0 0 1 18 18 0 0 1-3 4 17 17 0 0 0-2 5l4 5 4 6-4 2a17 17 0 0 0-4 3c-1 1-2 2-2 5v3l-2 1-8 7a6 6 0 0 0 0 3l9 13c3 3 5 7 5 9a3 3 0 0 1-1 2h-8l-18 2c-2 1-2 1-2 3a6 6 0 0 0 2 3c3 5 2 7-5 9l-9 3 1 4 1 2-2 2-1 2a22 22 0 0 0 5 5l3 1c1 0 0-1 0 0s2 3 5 4c2 2 2 3 0 5-2 1-4 2-15 2l-12 1-18 6c-3 1-3 1 1-1 6-4 17-6 29-7 10 0 13-1 14-2 2-1 2-2 0-3-4-2-14-11-14-12l2-2c2-1 2-1 1-3a9 9 0 0 1-1-3c0-2 4-4 10-5s7-3 4-7l-2-4c0-2 0-2 2-3 3-2 11-2 19-2 10 0 10-2 2-12l-6-10c-2-3-2-4-1-7l6-5a6 6 0 0 0 2-1l1-4c0-3 0-3 2-4a9 9 0 0 1 4-3 13 13 0 0 0 3-1c1-1 0-1-1-3a51 51 0 0 0-3-4 15 15 0 0 1-3-4l-1-1a10 10 0 0 0-2 2l-4 6-5 7a25 25 0 0 1-3 4 26 26 0 0 1-3 4l-5 6-4 5a11 11 0 0 0-2 4 1 1 0 0 1-1 1l-1 1a21 21 0 0 1-2 3 162 162 0 0 0-18 22l-4 5a169 169 0 0 1-34 27 7 7 0 0 0-2 1l-9 3 2-1c5-1 14-6 21-12l20-17 8-11-3-1c-6 0-5-4 2-8a10 10 0 0 0 3-2l-1-4a12 12 0 0 1-2-3 6 6 0 0 1 2-2 6 6 0 0 0 1-2l-5-4a9 9 0 0 1-3-3 7 7 0 0 1 1-3 15 15 0 0 0 1-3l-2-2c-3-2-4-3-3-6l-1-2a2 2 0 0 0-2 0 4 4 0 0 1-1 1v-1c2 0 1-1 0-1-2 0-2 1-3 2a14 14 0 0 0-2 5l1 4 2 1 2 2v2l-2 1c-3 1-3 1-2 3a3 3 0 0 1 1 2 15 15 0 0 1-4 1 24 24 0 0 0-4 2c-2 2-2 3-1 8 1 3 1 5-2 8s-3 4-2 7c1 2 1 3-2 4s-2 5 4 8c2 1 3 2 2 4s-2 3-5 1a21 21 0 0 0-7-1l-3 1a2 2 0 0 1-2 0h1c1-1 0-1-3-1H3 1l1-1c2-1 14 0 19 2h5c1-2 1-3-2-5-4-2-6-4-5-6v-2l2-1 1-2a22 22 0 0 1-1-3c0-3 0-3 3-5 2-3 3-3 3-5a19 19 0 0 0-2-5l-1-3 2-2c1-2 5-4 6-4a3 3 0 0 0 2 0v-2a14 14 0 0 1-1-2 7 7 0 0 1 2-2l2-1a9 9 0 0 0-2-3 7 7 0 0 1-2-4v-2l-3 5c-6 8-14 16-20 21-1 1-8 5-9 4a23 23 0 0 1 5-3c8-4 20-18 28-30a19 19 0 0 1 2-3c1-1 6-2 7-1l6 7c1 3 3 5 4 5a6 6 0 0 1 2 1 6 6 0 0 0 2 1c2 0 4 2 6 4 2 4 4 5 6 5 2 1 2 1 3-1a271 271 0 0 0 24-31 4 4 0 0 0 1-1 4 4 0 0 1 1-2l5-8 5-5c3-1 4-1 6 1a10 10 0 0 0 3 1l4 4a13 13 0 0 0 3 4 20 20 0 0 1 3 4 16 16 0 0 0 3 4 13 13 0 0 1 5 7l2 4c3 3 4 5 6 11a8 8 0 0 0 2 3 1 1 0 0 1 1 1 36 36 0 0 0 4 4 44 44 0 0 1 5 6c1 2 2 3 5 3s4 2 5 5l1 3 13-8a44 44 0 0 0 5-6l6-5 7 5s0 1 0 0l6 6a46 46 0 0 0 4 4c3 2 3 2 7 2s3-1 10 7a17 17 0 0 0 6 5l8 3 4 2a6 6 0 0 1-1 2l-2 11c-2 11-2 12-1 12l5 4-3-1-4-2a6 6 0 0 0-2 1 8 8 0 0 1-4 1c-2 1-2 0-3-1a8 8 0 0 1-1-4 3 3 0 0 0-1-2h-6l-8-2c-1-1 0-3 2-5a9 9 0 0 0 2-3c0-1-5-7-6-6l-1-1c-2-2-2-3 1-6 3-2 4-4 3-5a28 28 0 0 0-5-5c-5-3-5-3-4-5 0-3-3-7-8-11a23 23 0 0 1-3-3l-3-2-1 1h1l1-1v2l-3 3c-1 2-2 3 0 3a4 4 0 0 0 4 0 10 10 0 0 1 2-2 107 107 0 0 0-3 2v2c1 1 0 2-2 3s-2 3 0 5l1 3a21 21 0 0 1-4 3c-4 3-4 4-3 7a18 18 0 0 1 1 6v5l1 1a13 13 0 0 1 3 4 11 11 0 0 0 3 3 19 19 0 0 1 4 4 12 12 0 0 0 3 3 26 26 0 0 0 4 1l6-1 2-1-2 1-1 1 1 2a30 30 0 0 1 2 5 27 27 0 0 0 4 5 38 38 0 0 1 4 4c1 2 0 1-4-2l-3-4v2l-1 7v5l-1-4v-3a137 137 0 0 0-6 26l3-19 1-8a3 3 0 0 1-2 0c-1-1-1-1-2 3a364 364 0 0 0-1-3v-2c0-3 0-3-2-2l-5 25-1 4 2-11 2-13v-2h-1l-2 1-2 8-1 6a88 88 0 0 1 1-10c1-1 1-1 0 0l-1 1v-2a41 41 0 0 1 0-5 40 40 0 0 0 1-6v-1l-1 1-5 27a16 16 0 0 1-1 4 206 206 0 0 1 4-27 4 4 0 0 0-1 2 1 1 0 0 1-1 1l-1-4v-4c-1 0 0 1 0 0a29 29 0 0 0 0-4v-2l-2 13-3 13 2-15 1-6-1-1c-2-1-2-1-2 2l-1 5-2 11-2 11c-1-1 2-16 3-23v-4-1c0-2 0-2-2 0l-2 9a378 378 0 0 1-5 25 1 1 0 0 0 0 1l-1 1 1-3a136 136 0 0 0 5-26 22 22 0 0 0 1-6 2 2 0 0 1 0-1 12 12 0 0 0 1-3c0-2 0-2-1-1a5 5 0 0 0-1 3s0 1 0 0c-1-1-3 6-5 20l-2 6v-1l3-20a3 3 0 0 1 1-2v-2a1 1 0 0 1 0-1 2 2 0 0 0 1-2s0-1 0 0a5 5 0 0 1-1 2c-3 3-5 8-6 16l-2 6 3-15 1-6a2 2 0 0 0-1 1l-2 3 1-3a10 10 0 0 0 2-3c-1-1 0-8 1-14 1-7 1-12-1-11l-1 1a1 1 0 0 1 0 1l-1 3a49 49 0 0 1 0 6l-1 8-1 4-1 3-2 8c-1 8-1 8 1 0l2-6-2 10-4 18-3 12v-1a14 14 0 0 0 1-2l1-6a67 67 0 0 0 2-13v-1l1-1a30 30 0 0 1 0-7 280 280 0 0 0 6-33 38 38 0 0 0 0-6c0-2 0-2-1-1s-1 1-1-2c0-2-1-2-2 1l-1 6v-1 1a1 1 0 0 1-1 1v-2c0-3 1-4 1-2v2-2-5a61 61 0 0 1 0-7v-4l-1 2-3 21-1 1v-3a250 250 0 0 0 2-23l-1 5-1 4v-6-6l-1 5c-1 6-1 5-1-1l-1-5-1 3a25 25 0 0 1 0 3 117 117 0 0 0-1 11 26 26 0 0 1-1 5v-1-2l-3 5a1 1 0 0 0 0-1 2 2 0 0 1 2 0l1 3a12 12 0 0 1 0 3l1-1a6 6 0 0 0 2-3 2 2 0 0 1 0-1v2 5h-1a5 5 0 0 0 0 2c1-1 3-2 3 0a3 3 0 0 1-1 1 1 1 0 0 0 0 1c1 1 2 0 2-2l1-2v7l1 1 2 2h-1c0-2-3-2-3-1a1 1 0 0 1 0 1l-1 3v4a2 2 0 0 1 1 2 1428 1428 0 0 0-2 2l-19 10-2 1v3c0 3 2 4 2 0a7 7 0 0 1 1-2v1c-1 4-1 4 2 5a6 6 0 0 0 3 1 6 6 0 0 0 1-3l2-10v2l-1 5-1 5v1a123 123 0 0 1 13 2c2 0 2 1 1 4-1 2-3 11-2 12l-1 3v-7a42 42 0 0 0 1-6 7 7 0 0 0-2 1 11 11 0 0 1-3 2l-2 2c-1 1-2 1-2 3v5l-1-3v-3l-1 1a20 20 0 0 0-1 3v2c2 2 11 3 15 1l2-2a413 413 0 0 1 4-16v2-2l1-1a4 4 0 0 1 0 2l-1 2h-1a1 1 0 0 0 1 1v1a6 6 0 0 0-2 2l-1 9a27 27 0 0 0 2-1c7-3 9-3 14 2 4 4 6 4 16 3 5-1 6-1 10 2a12 12 0 0 0 3 1 1 1 0 0 1 1 1l-5-2zm-68-31l-2-1v2c1 0 2 1 2-1zm27-1c0-1 0 0 0 0v1a2 2 0 0 0 0-1zm34-9v-2l-2 5v2l1-2a16 16 0 0 0 1-3zm2 2v-2l-2 2h2zm11-2l1-3v3l1-4a25 25 0 0 1-1-2l-3-4a24 24 0 0 0 0 4v3c1-1 1-1 1 3v2a5 5 0 0 0 1-2zm-2 0l-1 1h1a3 3 0 0 0 0-1zm-2-1h-1v2a2 2 0 0 0 1-2zm-14 0l1-8-1-7-1-1v2l-1 2v10l1 3 1-1zm8-3l-1 1h1v-1zm-2-1l1-1v-2-4l-1 3a1520 1520 0 0 0 0 6 4 4 0 0 0 0-2zm4-3l-1-3-1 2 1 5h1a18 18 0 0 0 0-4zm2 4a11 11 0 0 0 1-4l-1-3-1 5c-1 3 0 4 1 2zm-9-2a3 3 0 0 1 1-1 2 2 0 0 0 0-2c0-1-1-1-1 1l-1 2c-1 1 0 1 1 1v-1zm12-2v-3l-1 4c0 2 1 1 1-1zm-33-1v-2l-1 4 1-2zm15-2v-5a1 1 0 0 0-1 1l-1 1-2 3 1 1a1 1 0 0 1 0 1l1 2 2-4zm-11 2c0-1 0-1 0 0v1a2 2 0 0 0 0-1zm6-1v-1a5 5 0 0 0-1 3l1-2zm-26-8c1-2 0-2-2-1l-1 4-1 3a4 4 0 0 1 0-2v-7c-1 1-1 1-1-2a8 8 0 0 0 1-3l-3 7a13 13 0 0 1-1 4l1-10c2-4 1-5-1-2a6 6 0 0 0-2 4v9l5 2 4 3v-3l1-6zm15 5a13 13 0 0 1 2-4c1-1 2-10 1-14l-1-3-3 13-1 9a5 5 0 0 0 0 2 17 17 0 0 0 2-3zm64 2a9 9 0 0 1 2-1l1-2 1-11 1-8v-2-1-1l-4-2c-2 0-2 1-2 2l1 6c1 0 2 0 2-2a24 24 0 0 0 0-3 2 2 0 0 1 1-1v8l-1 4a24 24 0 0 1-1 5 12 12 0 0 0 0 2c-1 4-1 5-1 2v-3l-1-1v-1c-1 0-2 2-2 5v4l-1-4v-6c1-1 1 0 0 0a2 2 0 0 0-2 0l-1 7 1 4c1 2 3 2 6 0zm-59-2c1 0 2-17 1-19s-1 0-1 3v3l-1 6-1 8c-1 1-1 1 0 0a3 3 0 0 1 2-1zm4-3l1-6-1-6c-2-2-2-1-2 5l-1 11 2-1a7 7 0 0 0 1-3zm15 4v-1l-1 1h1c1 0 0 0 0 0zm-12-4l-1-7-1 5a46 46 0 0 1 0 5v1l2-4zm11 2l-2-1 1 2c0 1 1 1 1-1zm-49-3V90l-1 1a5 5 0 0 0-1 2 21 21 0 0 1 0 4l-1 2v-3l1-6v-4l-2 2a6 6 0 0 0-1 4l-1 4c-1 5-1 5 2 6l3 1a4 4 0 0 0 1-2zm40-2c0-4 0-5-1-2v6l1-4zm7 3a3 3 0 0 0-1-1h-1c1 2 2 2 2 1zm-4-4c-1-1-1-1-1 1s0 2 1 1v-1zm39 2a1 1 0 0 1-1 0l1-1a1 1 0 0 0 1-1v-1l-2 1-3 1-1 1 1-3c1 1 2 0 2-1l-1-1a4 4 0 0 0-1 1h-2v1l-1 3-1-2v-1c-1 2-2 2-2 1 0-2-1-2-1 0l-1 2 2 1 10-1zm-89-3l1-10-1-1 2-3-2 1-2 6a65 65 0 0 0-1 6v2l1-15 2-9h1l1 2c0 1 0 0 0 0l1-5 1-2v4a2 2 0 0 0 0 2v3c-1 2-1 2 1 1a8 8 0 0 0 1-5l1-2v2a21 21 0 0 0 0 4l1 1a3 3 0 0 0 1-2h1l1 1v2c-1 1-1 2 0 0a2 2 0 0 1 1 0l3-19-1-1-1 4c0 3-1 2-1-2v-2l1-1-1-1-1 2-1 2v-3-3l-2 7c-1 8-1 9-1 4l1-13v-7l-1 7-1 5a7 7 0 0 1 0 1l-1 3v-1a38 38 0 0 1 0-5l2-7-1-6v-1l-1 2a852 852 0 0 1-2 10 99 99 0 0 0 2-13l-1-1v3l-2 8v-1c1-1 0 0 0 0a9 9 0 0 0-1 3 133 133 0 0 1-3 17 101 101 0 0 0-1 5 24 24 0 0 1 1-5l1-6 1-7a18 18 0 0 0 0-5 30 30 0 0 1 1-6l1-11c-1-1-1 0-2 7l-2 13-1 12a321 321 0 0 1-4 31s4 2 6 1l1-3zm10-23l1-12v6l-1 6v2zm-9-2v-1a2 2 0 0 1 0 1c0 1 0 0 0 0zm-7 13v-7l1-4a3 3 0 0 0 1-2c0-1-1-1-4 2s-3 3-3 5l-3 16-1 1v-1a43 43 0 0 1 1-4 300 300 0 0 0 1-13 43 43 0 0 0-4 3 53 53 0 0 1-6 4c-6 3-7 5-6 7 0 1 1 1 1-1s0-3 1-2a12 12 0 0 1 0 3l-2 3-1-2-1-1v2c1 2 3 2 7 3 3 1 3 1 4-3a38 38 0 0 1 0-5l1-4v3l-1 6a30 30 0 0 1 0 3l3 2h9v-3l2-11zm-6 13a272 272 0 0 1 4-20 27 27 0 0 0-1 5 205 205 0 0 1-3 15zm-11-5c0-6 0-7 1-1l-1 5v-4zm6 1l1-11v6a54 54 0 0 0-1 6v-1zm-9-1l1-5v7l-1-2zm8-7l1-4a4 4 0 0 1 0 2 15 15 0 0 0-1 3v-1zm95 12v-3l-1 1c-1 1-2 2-1 3s2 1 2-1zm-60-3l-1 1c0 1 0 1 0 0l1-1zm73 0c1-1 1-1-1-1a1 1 0 0 0-1 1c-1 1 0 2 2 0zm8-2c0-3 0-4-1-3l-1-1-1 5 2 2 1-3zm-18 1c0-1 0-1 0 0 1 0 3 0 2-1a1 1 0 0 1 1-1l-1-1h-1v-2c-1 0-2 0-1-1a4 4 0 0 0 1-1l1-1-2 1-1 1a10 10 0 0 0 0 2v5l1-1zm14-2l1-8-1-5-2 8v6l1 1v1l1-3zm-6-3V75a3 3 0 0 0-1 0 81 81 0 0 0-2 14l1 2v2 1l2-5zm-43 5a3 3 0 0 0 0-1h-1a1 1 0 0 0 1 1zm3-1a1 1 0 0 0-1-1v1h1zm42 0l1-8v-8h-1l-2 16h2zm-4-1h-1s0 1 0 0a1 1 0 0 0 1 0zm-76-5a2 2 0 0 0-1 2h1a6 6 0 0 0 0-2zm68-5h-1l-1 3c0 1 0 2-1 1l1-6h1c0 1 0 1 0 0l1-1-1-3c0-2 0-3-1-1a8 8 0 0 1-1 3 10 10 0 0 0-1 4v3l2 2 2 2v-3a20 20 0 0 0 0-4zm-34 3a17 17 0 0 0-1-6v-3l6-6c2-1 2-2 0-4v-4l4-3a6 6 0 0 0-3-1c-2-1-2-1-2-3a7 7 0 0 1 1-3l-2 2a50 50 0 0 1-13 11 36 36 0 0 0-4 3c-1 1 2 6 5 9a19 19 0 0 1 2 4l1 1 1 1c0 1 0 0 0 0l1 1a6 6 0 0 0 2 3c2 2 2 2 2-2zm-37 2a5 5 0 0 0 1-2 4 4 0 0 1 1-1 4 4 0 0 0 2-2h-1l-2 1-2 4c0 2 0 2 2 0zm5 0a1 1 0 0 0-1 1h1a1 1 0 0 0 0-1zm73-2v-3-3l-1 2v4 1a2 2 0 0 0 1-1zm-80-1l-2 2 1-1 1-1zm28-3v3a4 4 0 0 0 0-3zm5 4h-1a1 1 0 0 0 1 0zm43-1c1 0 1-1 0 0a2 2 0 0 0-1 1l1-1zm-8-1c0-3 0-3-1-2l-1 3c0 1 2 1 2-1zm-69 0a4 4 0 0 0 1-2v-1a4 4 0 0 0-2 3h1zm78-4c0-1-2 1-2 3v1l1-1c1-1 2-2 1-3zm-80 0v-1c-1 0-2 1-2 3l-1 1 2-1a7 7 0 0 0 1-2zm30 0a4 4 0 0 0-1-2v3a2 2 0 0 0 1-1zm53-1c-1-1-2 0-2 1h1l1-1zm-60-1c0-1 0 0 0 0v1a3 3 0 0 0 0-1zm57 1h-1v1a1 1 0 0 0 1-1zm-2-1l-1-1v2l1-1zm6-3a4 4 0 0 0 0-3h-2a14 14 0 0 0 0 4l1 2a4 4 0 0 0 1-3zm-3-3c1-2 0-4-1-4v5a5 5 0 0 0-1 3v1l1-1a6 6 0 0 0 1-4zm-4 3v-2c-1-1 0 0 0 0l1-2a7 7 0 0 1 1-2v-2l-4-1 1 1 1 2a5 5 0 0 1 0 3 1 1 0 0 0 0 1 5 5 0 0 1 0 2c-1 1 0 2 0 0zm-53-2c0-1-1-1-1 1l1 1v-1zm3-1h-1l1 1a2 2 0 0 0 0-1zm47-1l-1-2-1 4c1 1 2 0 2-2zM54 71l-1-2c-1 0 0 0 0 0l1-5h-2a4 4 0 0 0-2 3l-1 2-1-1v1a1 1 0 0 1-1 0c-1 1 0 1 3 1l3 1h1zm-3-2l1-4v4h-1zm164 1h-1a1 1 0 0 0 0 1c0 1 0 1 0 0a3 3 0 0 0 1-1zm-5-1h-1c-1 0 0 0 0 0a1 1 0 0 0 1 1v-1zm-2-2a1 1 0 0 0-1 0l-1-3v-2l-1 3 1 3c1 0 3 0 2-1zM57 64a6 6 0 0 1 1-2h-1l1-4h-1c-2 1-2 2-2 5a18 18 0 0 1-1 3c0 2 0 1 1 0l2-2zm1 3a2 2 0 0 0 0-2h-1a7 7 0 0 0 0 2h1zm106-2l-1-2-1 1a11 11 0 0 1 0 2l1 1 1-2zm49 1h-2l1 1a6 6 0 0 1 1-1zm-2-1l-1 1h1a1 1 0 0 0 0-1zm-76-17l2-10-1-5v2a43 43 0 0 1-1 7l-1 2V34a116 116 0 0 0-3 27l1-19c2-11 2-15 1-15l-1 7-1 8v-5a21 21 0 0 0 0-4l-3 6a21 21 0 0 0-1 5l-2 9v-3a33 33 0 0 0 1-5l-1 1c-2 3-2 6-2 8l1 1h1c-1 1 5 7 6 6v1a4 4 0 0 0 1 2l1 2 1-8 1-10zm-7 2l1-9 1-3-1 4c0 3 0 4 1 3s0 0 0 2a6 6 0 0 1-1 2 6 6 0 0 0-1 3v-2zm80 15a1 1 0 0 0 0-1l-1 1h1zm-4-1v1c0 1 0 0 0 0a1 1 0 0 0 0-1zm-43 0h-1l1 1a1 1 0 0 0 0-1zm44-3l-1 2 1 1v-1a2 2 0 0 0 0-2zm-47 0s0-1 0 0a1 1 0 0 0 0 1v-1zm-5-2v-1 1zm-89-1a9 9 0 0 1 1-3v-4l-2 2a31 31 0 0 0 0 5l-1 3 1-1a3 3 0 0 0 1-2zm-2-3v-7h-1l-1 5v1l1 2-1 1-1 3 3-5zm-7 3v-2c-1-1 0-1 1-3a13 13 0 0 0 2-6v-1l1 3c0 3 0 3 1-1v-4a5 5 0 0 0-2-1l-2 5-1 5-2 1-1 2 1 1c1 2 2 2 2 1zm12-2v-3l-2 2c-1 2 0 3 2 1zm87 0l-1-1a1 1 0 0 0 0 1h1zm-95-3l-1 1a3 3 0 0 0-1 1h1a3 3 0 0 0 1-2zm89-1l-1 1 1-1zm-80 0a1 1 0 0 0-1-1v1a1 1 0 0 0 1 0zm-13-3a23 23 0 0 1 2-6c1-1 0-2-1-1l-2 7h1zm85-4a179 179 0 0 1 0-6 2 2 0 0 0-1 1 38 38 0 0 1 0 5v4l1-4zm-86 0c1-5 0-6-1-1-1 3-2 4-1 1v-5l-1 3v4c2 1 2 1 3-2zm-4-1a18 18 0 0 1 1-3v-2l-1 1-2 4a9 9 0 0 1 1-3v-3a10 10 0 0 1-1 3v3c1 2 2 2 2 0zm-2-8a11 11 0 0 1 0-2h-1l1 3v-1zm-2-5l-1 2a3 3 0 0 0 0 2l1-2a5 5 0 0 0 0-2zm93 3h-1c-1 0 0 0 0 0a3 3 0 0 0 1 1v-1zm-4-2v2a4 4 0 0 0 0-2zm-91-1v-1a2 2 0 0 0 0 1c0 2 0 1 0 0zm87-5l-1-1v1c0 1 0 0 0 0h1zm-2-4a2 2 0 0 0-1-1v1c1 2 2 2 1 0zm-2-3l-1-1a3 3 0 0 1-1-2 2 2 0 0 0-1-1l1 3 2 1zm-5-7l-1-1v3l1 1v-1a3 3 0 0 0 0-2zm-3 0v-1h-1a6 6 0 0 1 0-2V7l-1 2v1 2h2zm-4-7h-2l-1 1V5a3 3 0 0 0-1-2v1c0 2 0 2-1 1s-1 0-1 1l2 1 3-1 1 1 1 2V7l-1-2zm19 152a5 5 0 0 1 1-1h1l-2 2zm13-3l1-6v1a15 15 0 0 0 0 4c-1 2-1 3-1 1zm41 0l1-7 1-6-2 13v1zm-38 0c-1-1 1-10 2-10v1l-1 5-1 4zm51-2c1-2 1-2 1 0a4 4 0 0 1-1 2v-2zm-18 1l1-1a3 3 0 0 1 0 1h-1zm14-1l1-6-1 7v-1zm-5 1zm13 0l1-5 2-9 2-10a56 56 0 0 0 2-8v-1l-1 7-1 8-2 8-1 7-1 3h-1zm-21-3v-1a1 1 0 0 1 0 1c0 1 0 1 0 0zm-5-1v-1a4 4 0 0 1 0 2v-1zm14 1v-1a1 1 0 0 1 0 1zm-31-1a34 34 0 0 1 3-7l-1 4c-1 3-2 5-2 3zm4-1a18 18 0 0 1 1-4v1l-1 4zm46 1a14 14 0 0 1 1-3l3-17-1-3c-1 0-1 0 0 0h1c1 0 0 12-2 17l-2 6zm-28-2l1-1a2 2 0 0 1 0 2l-1-1zm-10-1a25 25 0 0 1 1-3v-1a25 25 0 0 0 0 3v1h-1zm5-1s0-1 0 0a2 2 0 0 1 0 1v-1zm1-4a38 38 0 0 1 0-5v5zm-35 0a2 2 0 0 1 1 0 2 2 0 0 1-1 1v-1zm45-2l1-1a3 3 0 0 1 0 2l-1-1zm-22-1v-1a2 2 0 0 1 0 2v-1zm-4-3v-1a1 1 0 0 1 0 1c0 1 0 1 0 0zm-141-1h0c-1 0 0 1 0 0zm29 0l1-1v1h-1zm171 0l1-1c1-1 1-1 0 0l-1 1zm-168-2h2-2zm98-1zm-8 0a24 24 0 0 1 1-4 30 30 0 0 0 1-3l3-6a17 17 0 0 1-1 4l-2 6c-1 3-2 5-2 3zm-7-2l2-6a15 15 0 0 1 0 3l-1 4h-1v-1zm-33-1h1c1 0 0 0 0 0h-1zm-57 0l1-1h0l-1 1zm72-7h0c-1 1-1 0 0 0zm-6-4a3 3 0 0 1 1 0 3 3 0 0 1-2 1l1-1zm5-2h1c1 0 0-1 0 0h-1zm-63-2a3 3 0 0 1-1-1l-7-1h-3a12 12 0 0 0 4-1l7-2a12 12 0 0 1-3 1l-3 1 2 1a8 8 0 0 1 3 1 3 3 0 0 0 2 1v1l-1-1zm3 0c3-1 4-3 2-6l-3-1-1 1 1-1 1-1a2 2 0 0 1-1-2h-2l1-1 1-2a22 22 0 0 1 0-4l-1-2a5 5 0 0 0-4 2h-1a5 5 0 0 0 0-1c0-2 4-4 5-2a2 2 0 0 0 1 0l1 1a36 36 0 0 0 0 6c0 4 0 4 2 7a10 10 0 0 1 2 3c0 1-2 3-4 3h-1zm-3-20c1 0 1 0 0 0l-3 1c0 1 2 1 3-1zm69 20l1-1c1 0 0 0 0 0l-1 1zm39-1l2-6-1 6h-1zm-137-1c-3-2 4-5 13-6h6a7 7 0 0 0 1-2 5 5 0 0 1 4-3c2 0 2-1 2-2l2-1c2 0 1 0 1 1a12 12 0 0 0-2 1 9 9 0 0 1-3 2 5 5 0 0 0-3 2l-4 3h-3l-9 1c-2 0-2 0 0 1s1 0 0 0a2 2 0 0 1-2 0c-1-1-3 1-3 2l5 1h3-8zm10 0a1 1 0 0 1 1 0h-1c-1 0-1 0 0 0zm19-1h2l-1 1c-1 1-1 0-1-1zm3-1a3 3 0 0 1 1 0 3 3 0 0 1-1 1v-1zm151 0v0zm-176 0h1-1zm8 0h2-2zm-5-1a10 10 0 0 1 2-1l-3 1h1zm12-2l3-1-1 1h-2zm192-1c1-2 1-2 1 0l-1 1v-1zm-2-1l1-6a16 16 0 0 1 1-4v1l-1 5-1 5v-1zm-185 0l1-1c1 0 0 0 0 0l-1 1zm-3-1l3-1-2 1h-1zm159 0h1c1 0 0 0 0 0h-1zm-144 0v-1h1a3 3 0 0 1-1 0v1zm-11-2a3 3 0 0 1 2-1l-1 1a4 4 0 0 1-1 1v-1zm13 0a3 3 0 0 1 1 0c1 0 1 0 0 0a3 3 0 0 1-1 1v-1zm-60 0l1-1v1H8zm152-2a1 1 0 0 1 0 1v-1zM17 96a3 3 0 0 1 1 0l-1 1v-1zm49 0h1a1 1 0 0 1 0 1l-1-1zm20 0h0c-1 1-1 1 0 0zm75-1a25 25 0 0 1 0-4v-1a26 26 0 0 1 0 4v1zm-72 0l1-1-1 1zm104 0l2-2a5 5 0 0 1-1 1l-1 1zM69 94a4 4 0 0 1 2-1l-1 1a4 4 0 0 1-1 1v-1zm25-1v-1h1l-1 1zm94-3l1-1h1l-1 1h-1zm-34-7c0-6 1-13 2-12a129 129 0 0 1-2 12zm35-6l2-2a5 5 0 0 1-2 1l-1 1zm3-2v-1 1c-1 0-1 0 0 0zm-69-1h1c1 0 0 0 0 0h-1zm72-1a4 4 0 0 1 1-1l-1 1c-1 1-1 1 0 0zm-83-1l2-1-1 1h-1zm77-2h2a5 5 0 0 1-2 1v-1zm-70-1a3 3 0 0 1 1-1v1a3 3 0 0 1-1 0c-1 0 0 0 0 0zm73 0a7 7 0 0 1 2-2h2a7 7 0 0 1-2 1l-2 1zm-2-3a2 2 0 0 1 1-1l-1 1a2 2 0 0 1-1 0h1zm7 0h1-1zm-84-2h1l-1 1v-1zm80 0l3-2-2 1-1 1zm4-3a3 3 0 0 1 1 0c1 0 0 0 0 0a3 3 0 0 1-1 1zm-4-2l3-1a1 1 0 0 1 0 1 9 9 0 0 0-3 1 10 10 0 0 1-2 1l2-2zm-81 0a3 3 0 0 1 1 0c1 0 0 0 0 0a3 3 0 0 1-1 1v-1zm6-2l3-2-1 1a15 15 0 0 0-2 1h-1zm71-3l1-1 1-1a5 5 0 0 1-1 1l-1 1zm-81-7l1-1-1 1zm-3-32a1 1 0 0 1 0-1l1 1h-1z" fill="#424849"/><path d="M155 156a1 1 0 0 1 1 0h-1c-1 0 0 0 0 0zm-8-2v-1a3 3 0 0 1 0 1c0 1 0 0 0 0zm-7-1a2 2 0 0 1 1-1 2 2 0 0 1 0 1v1l-1-1zm10 1a1 1 0 0 1 0-1h1l-1 1zm2-1h1-1zm50-1v-1a2 2 0 0 1 0 1c0 1 0 0 0 0zm-46-1v-1a2 2 0 0 1 0 1c0 1 0 1 0 0zm23-2s0-1 0 0 0 1 0 0zm-13-1a14 14 0 0 1 1-4v2l-1 2zm4-3l1-1a4 4 0 0 1-1 2v-1zm-10 0a3 3 0 0 1 1-1s0-1 0 0a3 3 0 0 1 0 1h-1zm4-1v1-1zm0-2h1a1 1 0 0 1 0 1l-1-1zm-6-2a13 13 0 0 1 0-3h1a14 14 0 0 1-1 3c0 1 0 1 0 0zm4 0v-1a1 1 0 0 1 0 1c0 1 0 0 0 0zm-7-1a4 4 0 0 1 1-1c0-1 0-1 0 0a6 6 0 0 1 0 1h-1zm4-4v-1a1 1 0 0 1 0 1c0 1 0 1 0 0zm-17-2v1-1zm54 0v-1a1 1 0 0 1 0 1zm-55-1l1-1a2 2 0 0 1 0 1h-1zm-6-2c0-1 0-1 0 0a2 2 0 0 1 0 1v-1zm15 1a1 1 0 0 1 1 0c0-1 0 0 0 0h-1zm-18-1l1-1c0 2-1 2-1 1zm49 0l1-1a1 1 0 0 1 0 1h-1zm-42-1s0-1 0 0a2 2 0 0 1 0 1v-1zm7 1v-1a1 1 0 0 1 0 1zm64-1h1-1zm-23 0l1-1a1 1 0 0 1 0 1h-1zm-58-1h1a1 1 0 0 1-1 0zm87-1s0-1 0 0a2 2 0 0 1 0 1v-1zm-85-1h2l-2 1v-1zm60-1v-1 1zm-30-1l1-1a1 1 0 0 1 0 1h-1zm32-2c1-2 1-3 1-1a8 8 0 0 1-1 2v-1zm15 0v-1 1zm-65 0l1-1a2 2 0 0 1 0 1h-1zm24-1a1 1 0 0 1 0 1v-1zm12 0v-1a2 2 0 0 1 0 2v-1zm26 1a3 3 0 0 1 1-2c1-1 2 0 0 1l-1 1zm-7-1h-1l-1-1a5 5 0 0 0 0-1l1-1h1l-1-1h-1-1a1 1 0 0 1-1 0c-1 0 1-2 3-2 1 0 2 0 2-3v-2 2c0 4 1 4 2 2a8 8 0 0 0 1-2h1v1l-1 4a6 6 0 0 1-1 2v-1-1l-3 3v1zm3 0h1l1-2v-3h-1l1-1 1-2v3l-1 5h-2zm13 0v-1a1 1 0 0 1 1 1 1 1 0 0 1-1 0zm-27-2l1 1-1-1zm21 1v-1l-1-1 1-1v1l1 1v1s-1 0 0 0zm-16-2h1a1 1 0 0 1-1 1v-1zm13 0v-1 1zm6-1v-1l1 1h-1zm-35-1a1 1 0 0 1 0 1v-1zm11 0a19 19 0 0 0-1-3l1-2a2 2 0 0 1 0 1 6 6 0 0 0 0 1 4 4 0 0 1 0 3v1zm2 1a1 1 0 0 1 1-1v1zm3-3c0-3 1-3 2-3v3 1l-1 1c-1 1-1 1-1-2zm-27 1a12 12 0 0 1 2-3l1-2a2 2 0 0 1 0-1h1a6 6 0 0 0 0-1l1-1a6 6 0 0 1 0-3l1-1v2a24 24 0 0 1-4 8c-2 3-2 4-2 2zm7 1a11 11 0 0 1 1-4 32 32 0 0 0 1-4l-2 1h-1a10 10 0 0 1 1-1 2 2 0 0 0 0-1 2 2 0 0 0 2-1v5l-2 5zm37-1l1 1-1-1zm-19 0a2 2 0 0 1 0-2h1l-1 2zm-35-2a6 6 0 0 1 1-2l-1 2v2zm3 0s0-1 0 0a3 3 0 0 1 0 1v-1zm10 1a15 15 0 0 1 2-2l1-1-1 1-1 2h-1zm16-1h1a1 1 0 0 1 0 1h-1zm24-1v-2l1 4-1-2zm-32 1l2-5c1 0 0 0 0 0v1l1-2 1-1a1 1 0 0 1 0 1 5 5 0 0 0 0 2h-1v1s0 1 0 0l-2 2-1 1zm20 0a14 14 0 0 0 1-3v-2 6l-1-1zm-17-1l1-1c1 0 0 1 0 0a5 5 0 0 1 1-1 20 20 0 0 0 1-5v-3a3 3 0 0 1 0 2l1 5h-1a4 4 0 0 0-1 2l-1 1h-1zm-20-1l1-4a9 9 0 0 1-1 3v1zm-110 0l1-1c1 0 0 0 0 0a1 1 0 0 1 0 1h-1zm126-1a6 6 0 0 1 1-3v2l-1 1zm15-1l1-1v-2a5 5 0 0 1 0-2 6 6 0 0 0-1-3v-1l1 4c0 2 0 2 2 2s2 1 1 1v2a2 2 0 0 0-2 0h-1c0-1 0 0 0 0l-1 2zm-37 0h0zm53 0l1-1a1 1 0 0 1 0 1h-1zm-19-1v-1a3 3 0 0 1 0 1c0 1 0 0 0 0zm40 1l1-1a1 1 0 0 1 0 1h-1zm-27-1l-4-2a2 2 0 0 1-2-1 6 6 0 0 0-1-2v-1l2 2 6 2c3 0 3 1 2 2h-1l-1-1a1 1 0 0 0-1 1zm5-1v-1 1zm32-2v-1 1zm-82 1v-1a1 1 0 0 1 0 1zm9 0v-6l1-3v4l-1 5c0 1 0 1 0 0zm8-1v-2-2l1 2a27 27 0 0 0 0 3h-1v-1zm-113 0c0-1 0-1 0 0l1 1-1-1zm119 0h1l-1 1v-1zm52 0l1-1v1l-1 1v-1zm12 0v-1a2 2 0 0 1 0 2v-1zm-199 0a1 1 0 0 1 1 0h-1zm133-1v-1a3 3 0 0 1 0 2v-1zm11 1v-5-1l-2-3h-1a1 1 0 0 0-1-1l-1-1v-2h-2c-1 1 0 1 0 0s-2-4-3-3v-1l-3-4h-1l-1-2v2c-1 1-1 1-1-1v-2h2l1-1v1l1 1 1 2 1 1a5 5 0 0 0 2 3l2 1c0-1 1-1 2 1a4 4 0 0 0 2 1l2 4 1 1v1 1h1v1a1 1 0 0 0-1 0h1v1l-1 1v2c0 3 0 3-1 2zm-2-12c-1-1-2-2-2 0s1 1 2 1v-1zm-41 10c0-2 0-2 0 0v0zm17 0s0-1 0 0a2 2 0 0 1 0 1v-1zm22 0h1a2 2 0 0 1 0 1l-1-1zm56 1a7 7 0 0 1 1-1c0-1 0-1 0 0a2 2 0 0 1 0 1h-1zm-84-3c0-4 1-5 2-5v3 2c1 0 1 0 0 0a2 2 0 0 0-1 2c-1 1-1 0-1-2zm30 2s0-1 0 0a1 1 0 0 1 0 1v-1zm41 0a3 3 0 0 1 0-1v1c0 1 0 1 0 0zm8 0s0-1 0 0a1 1 0 0 1 0 1v-1zm-176 0a3 3 0 0 1 0-2h1l-1 2zm89-1h1a1 1 0 0 1 0 1l-1-1zm84-1v-1a3 3 0 0 1 0 1c0 1 0 1 0 0zm3 0v-1a2 2 0 0 1 0 2v-1zm-97 0a7 7 0 0 1 0-1c0-1 0-1 0 0v1zm78 0h1v1a1 1 0 0 1-1-1zm2 0a1 1 0 0 1 1 0v1l-1-1zm-32 0v-1a1 1 0 0 1 0 1zm28 0a1 1 0 0 1 1-2v1l-1 1zm-61-3v-2l-1 1h-1v-1h1a2 2 0 0 0 1-1c1-1 1-1 1 1v2h1v1a4 4 0 0 0-1 1l-1 1zm10 2v-1a2 2 0 0 1 0 1h-1zm29-1v-1a1 1 0 0 1 1 1h-1zm34 1a1 1 0 0 1 1-1v1h-1zM53 99l1-1v1l-1 1v-1zm166-1c0-2-1-3-2 0v1-2l-1-1 1-1h1c0 1 0 1 0 0a3 3 0 0 1 1-1 1 1 0 0 0 1-1h-1l1-1v-1h-1c-1 0-1-1 1-2l1-2a1 1 0 0 1 1-1v5a2 2 0 0 1-1-1v4c1 0 1 0 0 0l-1 1c0 1 0 0 0 0a1 1 0 0 1 1 0v1l-1 2a3 3 0 0 1-1 1v-1zm2 1l1-1a1 1 0 0 1 0 1h-1zm-37-1l1-1v2c-1 1-1 0-1-1zm47 0c-1-1 0-3 1-3v1c-1 1-1 1 0 0a3 3 0 0 1 1 0c1 0 2-1 2-4l-1-2v-1l-1-1h-1 5v1l-2 7v2l-2 1 1-1v-1l-3 1c0 1 0 1 0 0zm-90 0v-1a1 1 0 0 1 0 1c0 1 0 0 0 0zm82-1a2 2 0 0 1 2 0 2 2 0 0 1-2 1v-1zm-41 0l1-1a1 1 0 0 1 0 1h-1zm44 0c0-1 1-3 2-2h1l-2 1v1zm-15 0l3-3-1 2-2 1zM31 96a2 2 0 0 1 1-1l-1 1a2 2 0 0 1 0 1v-1zm83 0v-1a1 1 0 0 1 0 1c0 1 0 1 0 0zm-9-2l-1-1a7 7 0 0 1 2 1v2l-1-2zm17 1l1-1a1 1 0 0 1 0 1h-1zm26-1l1-1v-1a6 6 0 0 0 1 0 5 5 0 0 1-1 2c-1 2-1 2-1 0zm17 0c1-2 1-3 1-1a5 5 0 0 1-1 2v-1zm-11 1a1 1 0 0 1 1-1v1h-1zm26 0a1 1 0 0 1 0-1h1l-1 1zm44 0a13 13 0 0 1 0-2l1-1v1a2 2 0 0 1 0 2h-1zm-116-1l-1-1v-1l1 1 1-1a6 6 0 0 1 0-2h1a9 9 0 0 0-1 3c0 2 0 2-1 1zm3 0l1-1a1 1 0 0 1 0 1v1l-1-1zm104 0v-1a1 1 0 0 1 1 0l-1 1c1 1 1 1 0 0zM58 94v-1a1 1 0 0 1 0 1zm87-2l-1-3c-1-1 0-1 1-2l1-1a5 5 0 0 1 0 2 2 2 0 0 0 0 2h1a4 4 0 0 0 0-2h1c0 2-2 4-2 3l-1 2-1 2zm-83 1a1 1 0 0 1 0-1l1 1h-1zm55 0v-1a2 2 0 0 1 0 1c0 1 0 0 0 0zm3 0v-1a2 2 0 0 1 0 1c0 1 0 0 0 0zm18 0v-1a1 1 0 0 1 0 1c0 1 0 1 0 0zm39-1v-2a9 9 0 0 1 0 3v-1zM24 93a1 1 0 0 1 1 0h-1zm11-1l2-1a4 4 0 0 1-2 2v-1zm193-1a6 6 0 0 1 0-2 5 5 0 0 1 0 2v0zm-105 1v-1a1 1 0 0 1 0 1c0 1 0 1 0 0zm-97 0a1 1 0 0 1 1-1v1h-1zm213 0v-1a1 1 0 0 1 0 1zm-98-1a1 1 0 0 1 1 0v-2h1v2h-2zm15 0l1-5a3 3 0 0 0 0-2v-1 6a8 8 0 0 0 0 2h-1zm-50 0l1-1a1 1 0 0 1 0 1h-1zm11-1v-1a3 3 0 0 1 0 2v-1zm35 1a1 1 0 0 1 0-1h1v1zm22 0a1 1 0 0 1 0-1h1c0 1 0 2-1 1zm51-1v-1 1zm-111-1v-1a4 4 0 0 1 0 2v-1zm21 0s0-1 0 0a2 2 0 0 1 0 1v-1zm14 0l1-1a2 2 0 0 1 0 1v1l-1-1zm-37 0v-1a1 1 0 0 1 0 1c0 1 0 1 0 0zm15 0v-1a1 1 0 0 1 0 1c0 1 0 1 0 0zm112 0v-1a2 2 0 0 1 0 1c0 1 0 0 0 0zm-101 0l3-3-1 2-1 1h-1zm80-1a2 2 0 0 1 0-1h-1l-2-1a8 8 0 0 1 1-2 18 18 0 0 0 0-4 5 5 0 0 1 0-2 6 6 0 0 0 1-3 19 19 0 0 1 0-3 13 13 0 0 0 1-1c0-1 0-1 0 0v2l-1 3h1v2a9 9 0 0 0-1 3v3c-1 2-1 3 1 1l1-2v-1a5 5 0 0 0 1-3l1-2v1l-1 1v5h1l-1 3c0 1-1 2-2 1zm-48-1a2 2 0 0 1 0-1l1 1-1 1v-1zm4 0v-1a2 2 0 0 1 0 2v-1zm-39 0v-1a2 2 0 0 1 0 2v-1zm93 0l1-1a2 2 0 0 1 0 2l-1-1zm-67 0l1-1a1 1 0 0 1 0 1h-1zm-23-1a3 3 0 0 0 1-2 1 1 0 0 1 1 0c1 0 3-3 3-5v-1 1c0 1 2 2 3 1v-1l-1 1c0 1 0 1 0 0a3 3 0 0 1 1-2h2l-1 2v1c0 1-2 2-3 1v1a2 2 0 0 1 0 1 4 4 0 0 0-1 1l-1 1v-1a1 1 0 0 0 0-1l-3 2a2 2 0 0 1-1 1v-1zm8-4a1 1 0 0 0-1 0h1c1 0 0 0 0 0zm-22 3a5 5 0 0 1 0-2v2zm24 1h1c1 0 1 0 0 0h-1zm19-4l-1-5a4 4 0 0 0-1 1c-1 1-1 1 0 0s1 0 1 1a3 3 0 0 1-1 2h-1 1l-1-2-1-1v-1-1h1a8 8 0 0 1-1-3v-2l-1 4a23 23 0 0 1 0 5l-1-8v-4l-1 2-1 5v4l-1-1v-1a7 7 0 0 0 0-3c1-9 1-10-1-8 0 1-1 1 0 0l-1-3c-2 0-2-1-2-3 0-1 0-1 0 0h1a1 1 0 0 0-1-1 6 6 0 0 1 0-3l-1-2-1 1 1 3-1 2v-2l-1 2a8 8 0 0 0-1 3v-5l-1-1v-1c0-2-1-2-3 0l-1 1 1-2a24 24 0 0 0 0-3c0-1 0-2 1-1s0 0 0-1a1 1 0 0 1 0-1l-1-1v-1h-1l-1-1a5 5 0 0 0-1-2 8 8 0 0 1-1-3l-1-2v-1c0-2 0-2-1-1s0 1-1 0a2 2 0 0 1 0-2v-1l-1-1v1a4 4 0 0 1-1 2v-1a3 3 0 0 0 0-2c-1-1-1-1 0 0v-1l-1-1a2 2 0 0 0-1-1l-1-1v-1-1l-1-1 1-1v-1c1 0 0-1 0 0l1 2a7 7 0 0 0 1 3l1 2h1l1 2a12 12 0 0 1 3 4l4 8c1 1 2 2 1 3s0 0 1 0v1l3 3c0 2 0 2 1 1l3 2a9 9 0 0 0 3 3l2 1 1-1 3 4-1-1 1 1 1 4h-1l2 1 1 3a9 9 0 0 1 1 3c-1 0 0 0 0 0v1h-1a1 1 0 0 0 2 1l1 1 1 2c1 0 0 0 0 0l2 2-1-1a1 1 0 0 1 0-1h1a2 2 0 0 1 0 2h-2a1 1 0 0 0-1 0v2l-1 2-2 1a1 1 0 0 1 0 1v-4zm2-2l-1-4v3c0 2 1 3 1 1zm-4-4s-1 0 0 0v0zm1-2h-1l1 1a2 2 0 0 0 0-1zm0-2a2 2 0 0 1 0-2l-1-1-1 1 1 1v1a1 1 0 0 0 1 1v-1zm-2-7l-1-2c-1-1-2 0-1 2a4 4 0 0 1 0 2l1 1 1-3zm-3 0l-1-1v1h1zm-2-3s1 0 0 0a13 13 0 0 1 0-1h-1v2l1-1zm2 1a4 4 0 0 0 0-2c-1-1-1 0-1 1l1 1zm-5-1l-1-1a1 1 0 0 0 0 1h1zm0-3h-1l1 1a1 1 0 0 0 0-1zm-8-6c0-1 0-2-1-1v2a1 1 0 0 0 1-1zm64 32v-1l1 1v1l-1-1zm13 0l1-1a2 2 0 0 1 0 2l-1-1zm-89-1a2 2 0 0 1 1-2 4 4 0 0 0 2-1v-1l1 1a1 1 0 0 1-1 1h-1a5 5 0 0 0-1 2h-1zm103 0a3 3 0 0 0 1-2 2 2 0 0 1 0-1h2l-1 1-1 1-1 2v-1zm-108-1s0-1 0 0a2 2 0 0 1 0 1v-1zm92 0v-1a3 3 0 0 1 0 2v-1zm-13 0v-1 1 0zm19 0v1-1zm-110 0a1 1 0 0 1 1-1v1h-1zm88 0h1-1zm29-1l1-1v2l-1-1zm-79-1h1l-1 1c-1 0 0 0 0 0zm25 1a1 1 0 0 1 0-1v1c0 1 0 1 0 0zm31 0v-1 1zM19 80v-1l1 1c-1 2-1 2-1 0zm109 1l1-3c1 0 1 0 0 0a9 9 0 0 0 0 2l-1 1zm4 0v-1a2 2 0 0 1 0 1zm16 0l1-1v1h-1zm66 0h1v1l-1-1zm25 0a1 1 0 0 0-1-1l1-1 2 1-1 1a6 6 0 0 0-1 0c0 1-1 1 0 0zm-29-2a4 4 0 0 1 2-1l-1 1a2 2 0 0 1-1 1v-1zm22 0l1-1a1 1 0 0 1 0 2l-1-1zm-95-1l1-1v1l-1 2zm44 1v-1 1c1 1 1 1 0 0zm55 0a2 2 0 0 0-2 0h2zm-111-1v-1a2 2 0 0 1 0 1v1zm89-1c1-2 2-2 1 0v2l-1-1zm15 1h1v-1h-2a3 3 0 0 0-1-1 1 1 0 0 1-1 0v-1h-1 3c2 1 4 4 2 4l-1-1zm-7 0l1-1a1 1 0 0 1 0 1h-1zm-82-1a8 8 0 0 0 0-1h2l-1 1a1 1 0 0 0-1 0c-1 1-1 1 0 0zm30 0a1 1 0 0 1 1 0c1 0 1 0 0 0h-1zm10-1h1a1 1 0 0 1-1 1v-1zm-48 0l1-3a6 6 0 0 1 0 2l-1 1zm5 0l1-2a1 1 0 0 1 0 1h1l-2 1zm83 0a1 1 0 0 1 0-2v2zm-63-2v-1a1 1 0 0 1 0 1c0 1 0 1 0 0zm56 0a15 15 0 0 1 0-3v-2l1 1v2l1-2-1-2c-1 0-2-1-1-2h1a1 1 0 0 0 0 2l1-1v-1 1a2 2 0 0 0 1 2v2 1l-2 2h-1zm10 0a3 3 0 0 1 1-2v2h-1zM22 73a2 2 0 0 1 0-2v2zm121 0l1-1a1 1 0 0 1 0 1h-1zm-91-1h1a1 1 0 0 1 0 1l-1-1zm169-1s0-1 0 0a2 2 0 0 1 0 1v-1zM46 71a1 1 0 0 1 1 0c1 0 1 0 0 0h-1zm87 0v-2 2zm77 0v-1-1h-1c-1 1-1 0-1-1v-1c-1 1-1 0-2-1s0-1 1-1h2a3 3 0 0 0 1 2c0 1 0 1 0 0 1-3 1-3 1 1l-1 3zM54 70v-1l1 1-1 1v-1zm-8 0c-1-1 2-4 3-4v1a2 2 0 0 0-2 1l-1 2zm5-1a6 6 0 0 1 0-1h1a2 2 0 0 1-1 2v-1zm4 0a1 1 0 0 1 1 0c0-1 0 0 0 0a1 1 0 0 1 0 1l-1-1zm97-2a8 8 0 0 1 0-3v3zm36 2v-1 1 0zm33 0v-1a1 1 0 0 1 0 1c0 1 0 1 0 0zM49 68s0-1 0 0a2 2 0 0 1 0 1v-1zm4 1v-1a1 1 0 0 1 0 1zm83-1v-1a1 1 0 0 1 0 1zm18 0v-1a1 1 0 0 1 0 1zm-21-1v-1a1 1 0 0 1 0 1c0 1 0 1 0 0zm87 0v0zm-53 0a1 1 0 0 1 0-1l1 1h-1zM54 65v-2-1a3 3 0 0 0 0-1v-1l1 3a10 10 0 0 1-1 3v-1zm151-1c0-2 0-2 0 0v0zM51 64a5 5 0 0 1 1-1v1a5 5 0 0 1-2 1l1-1zm7 1v-3c1-1 1 0 1 2s-1 1-1 1zm145-1v-1l1 1-1 1v-1zm11 0h1l-1 1v-1zM60 61l1-1c1 0 0 0 0 0l1-3v2c-1 0-1 0 0 0l-1 3v1l-1-1zm146 0v-1a3 3 0 0 1 0 1v1a1 1 0 0 1 0-1zM57 61a2 2 0 0 1 1-1 1 1 0 0 0 0-2 1 1 0 0 1 0-1 4 4 0 0 0 1-1v-3-1h1a2 2 0 0 1 0 2l-1 5-1 2h-1zm88-2v-1a3 3 0 0 1 0 2v-1zm-3 0l1-1a2 2 0 0 1 0 2l-1-1zm60 0h1a1 1 0 0 1-1 1v-1zm-55-1l1-1a4 4 0 0 1 0 2l-1-1zm43 1v-1a1 1 0 0 1 0 1c0 1 0 0 0 0zm11-1a10 10 0 0 0-2-2l-2-3 4 5v0zM57 58a2 2 0 0 1 0-1h1a2 2 0 0 1-1 1s-1 0 0 0zm131-1c-1 0 0 0 0 0 1 0 2 0 1 1l-1-1zM56 56a6 6 0 0 1 1-4 7 7 0 0 0 1-2v-1c0-1 0-1 0 0v2a7 7 0 0 0 0 3 5 5 0 0 1-1 2 11 11 0 0 1-1 2 6 6 0 0 1 0-2zm87 0a11 11 0 0 1 0-3h1a17 17 0 0 1-1 3v2zm-92 0a2 2 0 0 1 1-1v1c0 1 0 2-1 0zm13 0h1a1 1 0 0 1 0 1l-1-1zm3 0a1 1 0 0 1 0-1l1 1a1 1 0 0 1-1 0c0 1 0 0 0 0zm73 0a4 4 0 0 1 0-2l1 1a2 2 0 0 1-1 1c0 1 0 0 0 0zm52-1a5 5 0 0 1 2-1l-1 1a5 5 0 0 1-2 1l1-1zM65 54a1 1 0 0 1 0 1v-1zm3 0l-1-1 2 1h-1c-1 0 0 0 0 0zm69-1v-1l1 1c0 1 0 2-1 0zm59 0v-1 1zM27 52l1-1v1h-1zm27 0l1-1v1a1 1 0 0 1-1 1v-1zm11 0l-1-1-1-2-1-2h2v-1 2l1 1a2 2 0 0 1 1 1c1 1 1 1 0 0s0-2 1-1l-1 3-1 1zm3 0c-1-1 0-2 2-2l2 1h-3l-1 1zm63-2h1a2 2 0 0 1 0 1l-1-1zm13 0v-1a4 4 0 0 1 0 2v-1zm-90 0v-1 1zm6 0v-1a1 1 0 0 1 0 1c0 1 0 1 0 0zm78 1v-2 2zm48 0v-1h1a1 1 0 0 1-1 1zm-50-3v-1a9 9 0 0 1 0 2v-1zm53 1h1l-1 1v-1zm2-1h1l1 1h-2zm-4 1l1-1h1l-2 1zM54 48v-1a1 1 0 0 1 0 1zm7-2a3 3 0 0 0 0-1 1 1 0 0 1 0-2l1 1 1 1v1h-1c-1 0 0 0 0 0h-1zm-27 0a1 1 0 0 1 0-1v1zm15 0s0-1 0 0l1-1c0-1 0 0 0 0l-1 1zm83-1s0-1 0 0 0 1 0 0zm8 0s0-1 0 0 0 1 0 0zm-11-1v-1a3 3 0 0 1 0 2v-1zm-3-2a7 7 0 0 1 1-2l-1 4v-2zM25 43a1 1 0 0 1 0-1l1 1a1 1 0 0 1-1 1v-1zm22 1a2 2 0 0 1 0-2v2zm85-2s0-1 0 0a4 4 0 0 1 0 1v-1zm-94 0h1a1 1 0 0 1-1 1v-1zm20 0a2 2 0 0 0-3 0v-1a1 1 0 0 0-1 0v-2l1 1h2l2 1v1c2-1 2 0 1 1s-1 0-2-1zm83-1v-1a4 4 0 0 1 0 2v-1zm-90 0v-1a1 1 0 0 1 0 1zm82-1v-1a2 2 0 0 1 0 1zm2 0v-1a2 2 0 0 1 0 1zm-87-2a7 7 0 0 0-1-4 7 7 0 0 1 0-3h-1l-1 1a4 4 0 0 1-1 2v-2-2l-1-1-1-2a1 1 0 0 1-1 0l-5 1-1 2c0 1 0 0 0 0h-1c0 1 0 0 0 0l1-2a4 4 0 0 1 3-2 12 12 0 0 0 3 0c0-1 0-1 0 0h2v1l1 1c1 0 3 2 5 6l3 4 1 1h-2-1c-1 0 0 0 0 0a2 2 0 0 1 0-1h-1a2 2 0 0 1-1 2v-2zm89 1a1 1 0 0 1 0 1v-1zm2 0a1 1 0 0 1 0 1v-1zm-4-5v-1a5 5 0 0 1 0 2v-1zM33 34v-1-1h1v2l-1 1v-1zm98-1a180 180 0 0 1-1-9v-1a3 3 0 0 0-1-2 2 2 0 0 1-1-2l-2-1-1-1v-1-2a1 1 0 0 0 1 0h-2v2h-1v-2l-1-3a1 1 0 0 0-1 0l-2-2-1-2c-1 0-2 0-1 2l-1 1V8a1 1 0 0 0 1-1V6l1-1c0-1 0 0 0 0 1 0 3 2 2 3l4 3a33 33 0 0 1 3 4l3 4 3 3a2 2 0 0 1-1 2v6l-1 3zm1-12h-1v1h1a3 3 0 0 0 0-1zm-2 0h-1 1zM99 32l1-1v2l-1-1zm35 1v-1a1 1 0 0 1 0 1zm-26-9h1a2 2 0 0 1-1 1v-1zm11-10v-1a1 1 0 0 0 0-1l2 1c0 1-1 2-2 1zm-18-3l1-2 1 1h-1v1h-1zm17 0a1 1 0 0 1 0-1h1l-1 1zm-15-3l1-1 1-1-1 1-1 1zm11 0a2 2 0 0 1 0-2l1 1-1 1zm-5-1a8 8 0 0 1-1-3l1-1h1l-1-1c-2 1-2 0 0-1l5 1a4 4 0 0 0 2 1l1 2h-1s0-1 0 0l-2-1c-1-2-1-2-1 1l-1 1V4l-1-2-1 3c1 0 1 0 0 0-1-1-1 0-1 1s0 2 0 1zm-4-2c-1 0-1 0 0 0l1-1V3v2s-1 0 0 0h-1z" fill="#141b1e"/></svg>