<svg xmlns="http://www.w3.org/2000/svg" viewBox="0 0 24 24"><title>book</title><g id="Layer_1" data-name="Layer 1"><path d="M12,2A10,10,0,1,1,2,12,10,10,0,0,1,12,2Zm0-2A12,12,0,1,0,24,12,12,12,0,0,0,12,0Z"/></g><g id="Layer_3" data-name="Layer 3"><path d="M14.69,12.47H8.21v.65h6.48ZM12.1,13.76H8.21v.65H12.1Zm2.59-3.88H8.21v.65h6.48Zm0,1.29H8.21v.65h6.48Zm0-3.88H8.21v.64h6.48Zm0,1.29H8.21v.65h6.48Zm4.82,6.66c.12-1.5-.28-1.65-2.13-3.45.11.79.34,2.2.59,3.24a.2.2,0,0,1-.38.14,24.71,24.71,0,0,1-.53-3.06.54.54,0,1,0-1.07.12v3.91c0,1.49.68,1.52,1.18,3.2.08.28.16.6.22.9l2.48-.87C19,17.68,19.43,16.34,19.51,15.24Zm-4.16,1.12H6.92V6H16V11.1a1.14,1.14,0,0,1,1.21.07h.08V5.67a1,1,0,0,0-1-1H6.59a1,1,0,0,0-1,1v11a1,1,0,0,0,1,1h9.06A3.1,3.1,0,0,1,15.35,16.36Z"/></g></svg>